# xmcd CD database file
#
# Track frame offsets:
#	150
#	16328
#	33555
#	48986
#	62263
#	76229
#	91185
#	107166
#	122096
#	139765
#	153417
#	170356
#	185883
#	200166
#	213937
#	227882
#	246003
#	259902
#
# Disc length: 3693 seconds
#
# Revision: 3
# Processed by: cddbd v1.5.2PL0 Copyright (c) Steve Scherf et al.
# Submitted via: CDex 1.51
#
DISCID=f60e6b12
DTITLE=Various Artist - RC 120
DYEAR=2010
DGENRE=Country
TTITLE0=Brad Pasley - Water
TTITLE1=Miranda Lambert - The House That Built Me
TTITLE2=Rodney Atkins - Farmer's Daughter
TTITLE3=Little Big Town - Little White Church
TTITLE4=Jason Aldean - Crazy Town
TTITLE5=Bucky Covington - A Father's Love
TTITLE6=Toby Keith - Every Dog Has its Day
TTITLE7=Jerrod Niemann - Lover Lover
TTITLE8=Gary Allen - Get off on the Pain
TTITLE9=Carrie Underwood - Undo it
TTITLE10=Zac Brown Band - Free
TTITLE11=Blake Shelton - All About Tonight
TTITLE12=Jaron and Long Road To Love - Pray For You
TTITLE13=Band Perry - Hip to My Heart
TTITLE14=Love and Theft - Dancin' In Circles
TTITLE15=Eli Young Band - Guinevere
TTITLE16=Kevin Fowler - Pound Sign
TTITLE17=Keith Urban - I'm In
EXTD=YEAR: 2010
EXTT0=
EXTT1=
EXTT2=
EXTT3=
EXTT4=
EXTT5=
EXTT6=
EXTT7=
EXTT8=
EXTT9=
EXTT10=
EXTT11=
EXTT12=
EXTT13=
EXTT14=
EXTT15=
EXTT16=
EXTT17=
PLAYORDER=
